<?xml version="1.0" encoding="utf-8"?>
<!-- Generator: Adobe Illustrator 19.0.1, SVG Export Plug-In . SVG Version: 6.00 Build 0)  -->
<svg version="1.1" id="Layer_1" xmlns="http://www.w3.org/2000/svg" xmlns:xlink="http://www.w3.org/1999/xlink" x="0px" y="0px"
	 viewBox="0 0 512 512" style="enable-background:new 0 0 512 512;" xml:space="preserve">
<style type="text/css">
	.st0{fill:#FFFFFF;}
	.st1{fill:#FF0000;}
</style>
<g>
	<g id="XMLID_1_">
		<g>
			<path class="st0" d="M255.6,213.2c24.9,14,50.1,28.2,75.7,42.7c-41.1,23.3-82.2,46.5-123.1,69.6c0-46.8,0-93.2,0-139.2
				C224,195.3,239.8,204.3,255.6,213.2z"/>
			<path class="st1" d="M474.7,166.6c3,5,4.2,9.2,3.6,12.8c-0.6,3.5-3.1,7.3-7.5,11.2c-9,8.3-18.1,16.5-27.1,24.6
				c-8.1,7.2-12.2,16.3-12.2,27.1c0,3,0,5.8,0,8.4c-0.3,11.3-0.1,19.7,0.5,25.1c0.6,5.4,2.3,10,5.1,13.7c2.8,3.7,7.4,8.3,13.9,13.9
				c3,2.7,6.4,5.8,10.2,9.3c7.1,6.3,11.9,11.3,14.5,14.8c2.6,3.5,3.1,7.4,1.7,11.5c-1.4,4.1-4.6,10.2-9.6,18.2
				c-3.8,6.5-7.5,13-11.1,19.4c-4.7,8.1-9.3,16.2-14,24.2c-5,9.6-12.6,12.5-22.8,8.6c-2.3-0.6-4.5-1.3-6.8-2
				c-9.9-3.2-19.8-6.4-29.6-9.7c-9.9-3.3-19.5-2.3-28.7,2.9c-1.7,1-3.4,2.1-5.2,3.2c-5.3,3.2-10.6,6.2-16,9
				c-11.1,6.3-17.8,15.7-19.9,28.2c-2,10.2-4.1,20.5-6.3,30.7c-0.2,1.1-0.4,2.2-0.7,3.4c-1.8,10.2-7.9,15.4-18.3,15.4
				c-7.4,0.1-14.8,0.2-22.4,0.2c-3.3-0.1-6.6-0.2-9.9-0.2c-3.2,0-6.3,0.1-9.5,0.2c-7.4,0-14.8-0.1-22.1-0.2
				c-11,0.3-17.4-5.1-19.2-16.3c-0.9-3.6-1.7-7.3-2.5-11.1c-1.8-9.3-3.8-18.6-6.1-27.8c-3.9-11.3-13.2-21-27.9-29.3
				c-14.7-8.2-27.8-11.1-39.4-8.7c-7.7,2.4-15.3,4.9-22.8,7.4c-4.8,1.5-9.6,3-14.5,4.5c-10.1,3.9-17.7,1-22.8-8.6
				c-10.7-18.4-21.3-36.8-31.8-55.4c-3-5-4.3-9.2-3.7-12.8c0.5-3.5,3-7.3,7.6-11.2c8.9-8.3,17.9-16.5,27.1-24.6
				c8.1-7.2,12.2-16.3,12.2-27.1c0-3,0-5.9,0-8.6c0.2-11.1,0-19.4-0.6-24.8s-2.2-10-5.1-13.7c-2.9-3.7-7.5-8.3-14-13.9
				c-3.2-3-6.9-6.5-11.3-10.4c-6.5-6-10.9-10.7-13.3-14c-2.4-3.3-3-6.9-1.7-10.9c1.3-3.9,4.3-9.6,8.9-17.2c2-3.5,3.9-6.9,5.9-10.4
				c6.6-11.6,13.3-23.1,20.1-34.6c5-9.6,12.6-12.5,22.8-8.6c4.1,1.4,8.1,2.7,12.2,4.1c8,2.7,16,5.3,24.2,7.7c0.3,0,0.6,0.1,0.9,0.2
				c2.4,0.8,4.9,1.4,7.3,1.8c2.5,0.5,4.7,0.3,6.7-0.4c10.5-4.4,20.8-9.3,30.7-14.7c1.7-0.9,3.4-1.7,5.2-2.5
				c12.1-7.5,18.6-18.5,19.7-33c1.2-7.1,2.7-14.1,4.5-21.2c0.6-2.6,1.2-5.1,1.8-7.7c2-10.4,8.1-15.5,18.3-15.4
				c21.5-0.3,43.1-0.3,64.6,0c10.2,0,16.3,5.1,18.3,15.4c0.9,4.1,1.7,8.1,2.5,12.2c1.8,9.3,3.9,18.6,6.3,27.8
				c0.9,2.9,2.1,5.8,3.6,8.7c1.5,2.9,3.4,5.2,5.6,6.9c12.4,8.4,25.4,15.8,39.1,22.1c2.4,1.2,5.1,1.7,8.2,1.6
				c3.1-0.1,6.1-0.6,8.9-1.4c9-2.6,18-5.3,26.9-8.4c4.1-1.4,8.1-2.6,12.2-3.8c10.1-3.8,17.7-0.9,22.8,8.6
				C453.6,129.7,464.2,148.1,474.7,166.6z M331.3,255.9c-25.6-14.5-50.8-28.7-75.7-42.7c-15.8-8.9-31.6-17.9-47.4-26.9
				c0,45.9,0,92.3,0,139.2C249.1,302.4,290.2,279.2,331.3,255.9z"/>
		</g>
	</g>
</g>
</svg>
